:SAMPLES-PER-SECOND 30
:FULLY-SPECIFIED
:DEGREES
205
root  4.66239 35.3734 -2.47617 61.5607 -77.9445 -64.8955
RightUpLeg  -30.3809 -2.03564 13.2065
RightLeg  42.9806 -0.324261 -0.686099
RightFoot  -9.86488 -0.015793 -3.98167
RightToes  -8.3237e-009 0 -3.6325e-017
Spine  7.4649 -2.44474 22.2614
Spine1  7.83747 -1.11089 5.09948
HEad  -25.3795 -2.53533 0.532242
LeftShoulder1  -0.313358 4.29539 -33.443
LeftArm  2.21185 -3.64457 -48.0906
LeftForeArm  37.5052 -6.62663 -11.2444
LeftHand  -0.0498796 7.36641 -0.714193
RightShoulder  -0.735545 -5.54274 29.4094
RightArm  17.5208 0.510941 45.381
RightForeArm  8.62036 13.4513 6.55645
RightHand  -0.129224 3.00151 -2.00465
LeftUpLeg  -10.7718 -0.0929021 7.76181
LeftLeg  50.6421 -19.6869 -23.5286
LeftFoot  -47.0138 -12.3151 -37.9664
LeftToes  -1.18267e-011 3.61711e-011 9.57411e-011
206
root  3.63495 34.9952 -2.44212 64.4117 -76.4171 -67.9531
RightUpLeg  -30.017 -3.09269 15.1564
RightLeg  46.1589 0.184877 -0.219398
RightFoot  -13.2971 -0.159943 -4.17078
RightToes  -8.3237e-009 0 -3.6325e-017
Spine  7.35465 -2.40709 26.0266
Spine1  8.58246 -0.157942 4.65003
HEad  -25.1811 -3.53836 0.346441
LeftShoulder1  -0.338631 4.35818 -33.4879
LeftArm  -2.50457 0.372958 -46.0388
LeftForeArm  43.9615 -4.16447 -10.1311
LeftHand  -0.0807357 7.37095 -2.02272
RightShoulder  -0.70602 -5.47876 29.0667
RightArm  20.6917 3.80578 46.5248
RightForeArm  5.47933 16.2978 6.02718
RightHand  -0.205761 4.35994 -2.74283
LeftUpLeg  -13.4369 -0.610115 10.4556
LeftLeg  57.8292 -18.725 -28.5266
LeftFoot  -47.3518 -10.6788 -32.9083
LeftToes  -1.18267e-011 3.61711e-011 9.57411e-011
207
root  2.49921 35.215 -2.44513 63.767 -76.8716 -67.4882
RightUpLeg  -27.5209 -3.26352 14.8001
RightLeg  46.021 0.250477 -0.167607
RightFoot  -15.4314 -0.250703 -4.09456
RightToes  -8.3237e-009 0 -3.6325e-017
Spine  7.20215 -2.37462 26.4955
Spine1  8.9083 0.657999 3.809
HEad  -24.8603 -3.84262 0.33865
LeftShoulder1  -0.301307 4.27082 -33.1515
LeftArm  -3.34922 5.8891 -43.3316
LeftForeArm  44.4799 -5.29316 -9.4473
LeftHand  -0.154557 8.44155 -3.9384
RightShoulder  -0.690151 -5.46056 28.5862
RightArm  23.408 6.98296 47.998
RightForeArm  4.078 19.1365 5.27062
RightHand  -0.205455 3.83269 -2.84994
LeftUpLeg  -14.0603 -0.563077 11.0073
LeftLeg  60.916 -17.4151 -30.0556
LeftFoot  -42.6412 -7.70209 -27.9875
LeftToes  -1.18267e-011 3.61711e-011 9.57411e-011
208
root  1.30288 35.3656 -2.35272 64.0438 -77.308 -68.0362
RightUpLeg  -24.9103 -4.0459 14.4311
RightLeg  46.0707 0.933493 0.405162
RightFoot  -17.7652 -0.36551 -4.36357
RightToes  -8.3237e-009 0 -3.6325e-017
Spine  6.94392 -2.40054 27.4207
Spine1  9.17585 1.37771 2.77117
HEad  -24.9987 -4.0948 0.139345
LeftShoulder1  -0.294117 4.25474 -33.0412
LeftArm  -1.24368 11.4428 -39.5506
LeftForeArm  40.7948 -7.56371 -9.62927
LeftHand  -0.192531 8.85334 -4.58271
RightShoulder  -0.724649 -5.55897 28.5956
RightArm  23.9176 10.0801 49.3864
RightForeArm  4.8945 21.3724 4.77802
RightHand  -0.192467 4.32976 -2.5751
LeftUpLeg  -13.8969 -1.06039 12.0841
LeftLeg  62.9135 -21.6676 -37.8636
LeftFoot  -38.6683 -3.90977 -16.8742
LeftToes  -1.18267e-011 3.61711e-011 9.57411e-011
209
root  -0.07056 35.4871 -2.14408 66.1405 -77.9702 -70.6969
RightUpLeg  -21.604 -5.48402 13.7079
RightLeg  46.1485 2.47039 1.72366
RightFoot  -20.284 -0.53225 -5.02823
RightToes  -8.3237e-009 0 -3.6325e-017
Spine  6.89201 -2.24632 28.4953
Spine1  8.62777 2.06455 1.78105
HEad  -24.7515 -4.33798 -0.0306094
LeftShoulder1  -0.239434 4.12243 -32.5246
LeftArm  0.678457 16.9357 -36.487
LeftForeArm  35.6824 -9.5161 -9.29747
LeftHand  -0.189156 8.85917 -4.405
RightShoulder  -0.660623 -5.42867 27.6207
RightArm  22.643 12.0002 51.1039
RightForeArm  5.5329 23.9377 4.80161
RightHand  -0.21965 4.44116 -2.87849
LeftUpLeg  -14.0438 -2.33305 13.5269
LeftLeg  74.0456 -32.9576 -65.0043
LeftFoot  -29.5123 0.0579394 0.679134
LeftToes  -1.18267e-011 3.61711e-011 9.57411e-011
210
root  -1.6865 35.8281 -2.05802 68.4446 -79.5314 -73.4654
RightUpLeg  -17.1722 -7.1601 11.9621
RightLeg  44.7831 4.50515 3.42509
RightFoot  -22.3792 -0.710765 -5.79812
RightToes  -8.3237e-009 0 -3.6325e-017
Spine  6.10323 -1.43918 27.6501
Spine1  8.07426 2.61423 0.889711
HEad  -24.6837 -4.71264 -0.0764841
LeftShoulder1  -0.0995871 3.76626 -31.9187
LeftArm  1.44954 21.3923 -34.0787
LeftForeArm  31.4387 -10.1265 -9.05263
LeftHand  -0.127515 8.65765 -2.73789
RightShoulder  -0.590883 -5.26426 26.8272
RightArm  20.7071 13.5986 52.335
RightForeArm  6.3249 26.2844 5.31379
RightHand  -0.226693 4.25315 -2.99645
LeftUpLeg  -14.7928 -4.25006 13.2052
LeftLeg  104.141 -40.6017 -114.635
LeftFoot  -12.1296 0.384966 9.56961
LeftToes  -1.18267e-011 3.61711e-011 9.57411e-011
211
root  -3.12334 36.6198 -2.30359 68.0322 -82.1225 -73.0415
RightUpLeg  -11.9501 -7.62097 9.47738
RightLeg  39.7886 6.02652 3.79053
RightFoot  -22.3563 -0.720329 -5.89779
RightToes  -8.3237e-009 0 -3.6325e-017
Spine  5.4274 -0.536814 23.9329
Spine1  7.9269 3.00744 -0.812609
HEad  -24.5526 -4.94019 -0.26302
LeftShoulder1  -0.084083 3.72778 -31.3725
LeftArm  1.91333 25.2559 -32.2358
LeftForeArm  29.5479 -10.8445 -8.67172
LeftHand  -0.112255 9.27654 -1.73386
RightShoulder  -0.586745 -5.27453 26.3939
RightArm  19.8224 15.0719 52.9458
RightForeArm  6.39804 28.6874 5.87091
RightHand  -0.278226 5.13132 -3.37972
LeftUpLeg  -13.8708 -5.30221 9.8692
LeftLeg  126.833 -36.3388 -144.203
LeftFoot  -2.08328 -0.0191773 0.408858
LeftToes  -1.18267e-011 3.61711e-011 9.57411e-011
